<?xml version="1.0" standalone="no"?>
<!DOCTYPE svg PUBLIC "-//W3C//DTD SVG 20010904//EN"
 "http://www.w3.org/TR/2001/REC-SVG-20010904/DTD/svg10.dtd">
<svg version="1.0" xmlns="http://www.w3.org/2000/svg"
 width="512.000000pt" height="512.000000pt" viewBox="0 0 512.000000 512.000000"
 preserveAspectRatio="xMidYMid meet">

<g transform="translate(0.000000,512.000000) scale(0.100000,-0.100000)"
fill="#000000" stroke="none">
<path d="M2120 5114 c-306 -28 -592 -109 -853 -241 -448 -227 -793 -572 -1019
-1018 -112 -220 -185 -451 -224 -705 -25 -160 -25 -500 0 -660 39 -254 112
-485 224 -705 226 -446 571 -791 1019 -1018 158 -80 286 -128 457 -172 281
-72 207 -68 1576 -74 l1235 -6 67 -32 c122 -58 201 -169 214 -303 9 -86 34
-135 84 -160 77 -39 163 -13 201 62 19 36 21 53 16 118 -21 268 -204 501 -461
587 l-81 28 -564 5 -565 5 94 60 c675 428 1085 1206 1056 2005 -13 356 -89
659 -244 965 -226 446 -571 791 -1019 1018 -216 109 -451 184 -693 222 -101
15 -428 27 -520 19z m490 -319 c426 -71 798 -262 1100 -565 304 -304 491 -669
567 -1105 24 -139 24 -471 0 -610 -76 -436 -263 -801 -567 -1105 -304 -304
-669 -491 -1105 -567 -139 -24 -471 -24 -610 0 -436 76 -801 263 -1105 567
-304 304 -491 669 -567 1105 -24 139 -24 471 0 610 76 436 263 801 567 1105
338 338 726 521 1240 584 73 9 389 -3 480 -19z"/>
<path d="M2132 4530 c-179 -47 -343 -180 -421 -342 -55 -113 -74 -206 -68
-328 12 -243 146 -449 358 -554 205 -101 393 -101 598 0 157 77 279 220 331
389 30 95 37 237 16 334 -51 241 -242 440 -482 501 -100 26 -233 26 -332 0z
m318 -311 c70 -33 141 -103 177 -177 24 -50 28 -69 28 -147 0 -78 -4 -98 -28
-150 -37 -78 -104 -147 -181 -181 -51 -24 -74 -28 -146 -28 -72 -1 -94 4 -145
27 -120 56 -202 173 -213 302 -6 84 12 154 59 223 45 68 93 108 168 139 78 33
201 29 281 -8z"/>
<path d="M1080 3464 c-179 -38 -357 -178 -438 -344 -55 -111 -72 -183 -72
-300 0 -117 17 -189 72 -300 82 -168 260 -307 443 -345 249 -52 516 44 664
239 186 247 186 565 0 812 -148 196 -419 292 -669 238z m295 -318 c78 -35 146
-103 181 -180 24 -52 28 -74 28 -146 0 -72 -4 -94 -28 -146 -34 -77 -103 -144
-181 -181 -52 -24 -72 -28 -150 -28 -76 0 -99 4 -145 26 -72 34 -145 106 -178
177 -23 49 -27 70 -27 152 0 82 4 103 27 152 28 60 99 138 152 165 99 52 221
55 321 9z"/>
<path d="M3212 3460 c-405 -106 -614 -545 -438 -917 90 -188 240 -311 442
-363 334 -86 674 107 790 450 27 79 27 301 0 380 -60 176 -184 324 -336 399
-146 71 -310 90 -458 51z m308 -312 c72 -33 145 -105 178 -176 23 -49 27 -70
27 -152 0 -82 -4 -103 -27 -152 -33 -71 -106 -143 -178 -177 -46 -22 -69 -26
-145 -26 -78 0 -98 4 -150 28 -78 37 -147 104 -181 181 -24 51 -28 74 -28 146
-1 72 4 94 27 145 46 99 123 165 232 202 62 20 179 12 245 -19z"/>
<path d="M2260 3040 c-178 -33 -245 -259 -113 -381 46 -43 91 -61 153 -61 126
0 222 96 222 222 0 140 -126 246 -262 220z"/>
<path d="M2160 2394 c-108 -23 -242 -96 -320 -173 -124 -124 -188 -268 -197
-441 -6 -122 13 -215 68 -328 53 -111 168 -229 276 -285 197 -103 429 -103
626 0 108 56 223 174 276 285 100 207 93 438 -21 632 -142 241 -434 369 -708
310z m288 -319 c75 -34 144 -103 179 -179 24 -53 28 -73 28 -151 0 -78 -4 -97
-28 -147 -36 -74 -107 -144 -177 -177 -47 -22 -69 -26 -150 -26 -81 0 -103 4
-150 26 -70 33 -141 103 -177 177 -24 50 -28 69 -28 147 0 78 4 98 28 150 47
101 139 178 244 205 62 15 167 4 231 -25z"/>
</g>
</svg>
